<?xml version="1.0" encoding="UTF-8" standalone="no"?>
<svg width="74px" height="90px" viewBox="0 0 74 90" version="1.1" xmlns="http://www.w3.org/2000/svg" xmlns:xlink="http://www.w3.org/1999/xlink">
    <!-- Generator: Sketch 48.1 (47250) - http://www.bohemiancoding.com/sketch -->
    <title>Page 1</title>
    <desc>Created with Sketch.</desc>
    <defs></defs>
    <g id="Home-@2x" stroke="none" stroke-width="1" fill="none" fill-rule="evenodd" transform="translate(-85.000000, -42.000000)">
        <g id="Page-1" transform="translate(85.312201, 42.316406)">
            <polygon id="Fill-1" fill="#FEFEFE" points="0.784552989 88.9411634 72.9555824 88.9411634 72.9555824 0.785651363 0.784552989 0.785651363"></polygon>
            <g id="Group-17" transform="translate(0.000000, 0.286676)">
                <polygon id="Stroke-2" stroke="#FEFEFE" points="0.784552989 88.6544877 72.9571515 88.6544877 72.9571515 0.497406595 0.784552989 0.497406595"></polygon>
                <path d="M28.4248255,20.4810696 L36.9811604,20.4810696 C41.8077304,20.4810696 44.1221617,22.6809562 44.1221617,25.6857941 C44.1221617,28.4066239 41.624145,31.1729577 36.6689083,31.1729577 L28.4248255,31.1729577 L28.4248255,20.4810696 Z M20.6499054,45.4737896 L30.7941755,45.4737896 C31.2068504,45.4737896 31.2994277,45.4361311 31.2994277,45.3921961 C31.2994277,45.3058953 31.1158423,45.2619603 30.6623706,45.0611147 C29.0195167,44.4115049 28.4248255,43.066781 28.4248255,41.0787238 L28.4248255,32.1803238 L35.0715584,32.346649 C40.7689822,32.4627628 41.5331369,35.2683243 43.5431616,40.1451057 L45.7242189,45.4737896 L51.7338948,45.4737896 C53.2308219,45.4737896 53.4599114,45.4361311 53.4599114,45.3921961 C53.4599114,45.2258709 53.099017,45.1128952 52.6816348,44.857131 C51.2757159,44.4115049 49.5920652,40.7915774 48.5470406,38.0330891 C46.9481216,33.7745354 42.5750232,32.346649 37.9806809,31.8539497 L37.9806809,31.7786326 C42.764885,31.7786326 50.2322604,31.0395837 50.2322604,25.4331681 C50.2322604,21.819517 46.717463,19.4642889 38.2568436,19.4642889 L21.2320437,19.4642889 C20.5573281,19.4642889 20.3737427,19.5568662 20.3737427,19.7137768 C20.3737427,19.9507118 20.836629,19.997785 21.324621,20.1625411 C23.1008489,20.7195737 23.1541985,22.8064847 23.1541985,24.0303873 L23.1541985,41.0787238 C23.1541985,43.066781 22.7336781,44.2577325 21.0170762,45.0611147 C20.5949867,45.2258709 20.2858728,45.3058953 20.2858728,45.3921961 C20.2858728,45.4737896 20.4161086,45.4737896 20.6499054,45.4737896 Z M9.03224474,56.3822144 L64.707263,56.3822144 L64.707263,8.538604 L9.03224474,8.538604 L9.03224474,56.3822144 Z M0.785023721,0.498504969 L0.775609085,64.4536955 L72.9576223,64.4536955 L72.9576223,0.498504969 L0.785023721,0.498504969 Z" id="Fill-4" fill="#231F20"></path>
                <polygon id="Fill-5" fill="#AFB478" points="0.775138353 88.6544877 72.9571515 88.6544877 72.9571515 64.4541662 0.775138353 64.4541662"></polygon>
                <path d="M10.0797799,76.7741587 L10.8768857,76.7741587 C11.7289103,76.7741587 11.9862437,76.5058416 11.9862437,75.9864675 C11.9862437,75.4514024 11.6614387,75.2066219 11.0667475,75.2066219 L10.0797799,75.2066219 L10.0797799,76.7741587 Z M8.98925124,79.8904032 L8.98925124,74.3483209 L11.2503329,74.3483209 C12.5432763,74.3483209 13.0610812,75.0685405 13.0704959,75.9864675 C13.0799105,76.6705977 12.7221544,77.2276304 12.0380242,77.4269068 L13.2854634,79.8904032 L12.0725445,79.8904032 L11.0086906,77.6355979 L10.0797799,77.6355979 L10.0797799,79.8904032 L8.98925124,79.8904032 Z" id="Fill-6" fill="#231F20"></path>
                <polygon id="Fill-7" fill="#231F20" points="14.7009539 79.8910309 15.7852061 79.8910309 15.7852061 74.3489485 14.7009539 74.3489485"></polygon>
                <polygon id="Fill-8" fill="#231F20" points="16.9537194 74.3486347 18.0175732 74.3486347 19.0374921 78.4345867 19.0469067 78.4345867 20.1076224 74.3486347 21.1761835 74.3486347 19.6714109 79.890717 18.4553538 79.890717"></polygon>
                <path d="M24.192476,75.1422885 C23.3012238,75.1422885 22.8932562,75.8122968 22.8932562,77.1115165 C22.8807034,78.4154436 23.2980856,79.0776063 24.192476,79.0776063 C25.0774517,79.0776063 25.4854193,78.4154436 25.4854193,77.1115165 C25.4854193,75.8122968 25.0774517,75.1422885 24.192476,75.1422885 M24.192476,79.961013 C22.6421993,79.961013 21.8058658,78.9363868 21.8058658,77.1115165 C21.8058658,75.2960609 22.6421993,74.2698656 24.192476,74.2698656 C25.7364762,74.2698656 26.577517,75.2960609 26.577517,77.1115165 C26.577517,78.9363868 25.7364762,79.961013 24.192476,79.961013" id="Fill-9" fill="#231F20"></path>
                <polygon id="Fill-10" fill="#231F20" points="27.7444612 79.8910309 27.7444612 74.3489485 28.8349898 74.3489485 28.8349898 78.9997787 31.3031935 78.9997787 31.3031935 79.8910309"></polygon>
                <polygon id="Fill-11" fill="#231F20" points="32.5950385 79.8910309 33.6792907 79.8910309 33.6792907 74.3489485 32.5950385 74.3489485"></polygon>
                <path d="M41.1370945,75.9299797 C40.8828993,75.3949146 40.5612326,75.1422885 39.9916471,75.1422885 C39.1976795,75.1422885 38.7991266,75.9299797 38.7991266,77.1758499 C38.7991266,78.3369883 39.2588747,79.0776063 40.0089073,79.0776063 C40.7165741,79.0776063 41.1684766,78.6209965 41.2014279,77.9855086 L40.1140374,77.9855086 L40.1140374,77.089549 L42.240176,77.089549 L42.240176,79.8904032 L41.4524848,79.8904032 L41.4524848,79.3255251 C40.995875,79.8197934 40.5737855,79.961013 39.9759561,79.961013 C38.4303867,79.961013 37.7133053,78.7794762 37.7133053,77.2040938 C37.7133053,75.7809147 38.2687688,74.2698656 40.0795171,74.2698656 C41.2233953,74.2698656 41.8761434,74.8567112 42.1491679,75.6742154 L41.1370945,75.9299797 Z" id="Fill-12" fill="#231F20"></path>
                <path d="M44.7532561,76.7741587 L45.550362,76.7741587 C46.4055247,76.7741587 46.6628581,76.5058416 46.6628581,75.9864675 C46.6628581,75.4514024 46.3380532,75.2066219 45.7339474,75.2066219 L44.7532561,75.2066219 L44.7532561,76.7741587 Z M43.6658657,79.8904032 L43.6658657,74.3483209 L45.9269474,74.3483209 C47.2198907,74.3483209 47.7345575,75.0685405 47.756525,75.9864675 C47.756525,76.6705977 47.4034761,77.2276304 46.6989476,77.4269068 L47.9652161,79.8904032 L46.7475898,79.8904032 L45.6790287,77.6355979 L44.7532561,77.6355979 L44.7532561,79.8904032 L43.6658657,79.8904032 Z" id="Fill-13" fill="#231F20"></path>
                <path d="M51.2320947,75.1422885 C50.347119,75.1422885 49.9422896,75.8122968 49.9422896,77.1115165 C49.9297368,78.4154436 50.3314279,79.0776063 51.2320947,79.0776063 C52.1296233,79.0776063 52.5375909,78.4154436 52.5375909,77.1115165 C52.5375909,75.8122968 52.1296233,75.1422885 51.2320947,75.1422885 M51.2320947,79.961013 C49.6849562,79.961013 48.8470536,78.9363868 48.8470536,77.1115165 C48.8470536,75.2960609 49.6849562,74.2698656 51.2320947,74.2698656 C52.7855096,74.2698656 53.6171358,75.2960609 53.6171358,77.1115165 C53.6171358,78.9363868 52.7855096,79.961013 51.2320947,79.961013" id="Fill-14" fill="#231F20"></path>
                <path d="M58.1121537,74.3486347 L59.2058206,74.3486347 L59.2058206,77.8147898 C59.2058206,79.4450909 58.1859017,79.9613268 57.021625,79.9613268 C55.8589175,79.9613268 54.8358604,79.4450909 54.8358604,77.8147898 L54.8358604,74.3486347 L55.9326655,74.3486347 L55.9326655,77.8587248 C55.9326655,78.7719445 56.2919908,79.0779201 57.021625,79.0779201 C57.7528284,79.0779201 58.1121537,78.7719445 58.1121537,77.8587248 L58.1121537,74.3486347 Z" id="Fill-15" fill="#231F20"></path>
                <path d="M61.8020633,76.7926742 L62.6572261,76.7926742 C63.4778685,76.7926742 63.7085271,76.4882676 63.7085271,75.9939992 C63.7085271,75.4997309 63.4778685,75.206308 62.6572261,75.206308 L61.8020633,75.206308 L61.8020633,76.7926742 Z M60.7146729,79.8916585 L60.7146729,74.3480071 L62.789031,74.3480071 C64.017641,74.3480071 64.7959175,74.8312917 64.7959175,75.9939992 C64.7959175,77.1629832 64.017641,77.6431296 62.789031,77.6431296 L61.8020633,77.6431296 L61.8020633,79.8916585 L60.7146729,79.8916585 Z" id="Fill-16" fill="#231F20"></path>
            </g>
        </g>
    </g>
</svg>